<svg width="48" height="48" viewBox="0 0 48 48" fill="none" xmlns="http://www.w3.org/2000/svg">
<path d="M41.4954 14.9006C41.5222 15.2885 41.5222 15.6764 41.5222 16.0678C41.5222 27.996 32.4416 41.7528 15.8373 41.7528V41.7457C10.9323 41.7528 6.12919 40.3478 2 37.6987C2.71322 37.7845 3.43002 37.8274 4.14861 37.8292C8.21345 37.8328 12.1621 36.4689 15.36 33.9574C11.4971 33.8841 8.10977 31.3655 6.92643 27.6885C8.27959 27.9495 9.67386 27.8959 11.002 27.533C6.79058 26.6822 3.76072 22.982 3.76072 18.6848V18.5704C5.01556 19.2693 6.42056 19.6572 7.85773 19.7001C3.8912 17.0492 2.66854 11.7724 5.06382 7.64678C9.64704 13.2864 16.4093 16.7149 23.6684 17.0778C22.9409 13.9425 23.9348 10.657 26.28 8.45296C29.9158 5.0352 35.6341 5.21038 39.0519 8.84443C41.0736 8.44581 43.0113 7.70398 44.7845 6.65292C44.1106 8.74254 42.7002 10.5176 40.8162 11.6455C42.6055 11.4346 44.3537 10.9555 46 10.2244C44.7881 12.0405 43.2615 13.6225 41.4954 14.9006Z" fill="#222222" style="fill:#222222;fill:color(display-p3 0.1333 0.1333 0.1333);fill-opacity:1;"/>
</svg>
